<?xml version="1.0" encoding="UTF-8"?>
<svg viewBox="0 0 640 480" xmlns="http://www.w3.org/2000/svg">
 <g stroke-linecap="round">
  <g stroke-linejoin="bevel">
   <g stroke="#000">
    <path d="m276.49 90.419c-235.8-77.563-337.84-94.334-412.75 103.18-73.149 192.87-98.463 363.36-59.5 486.98 39.06 123.92 135.71 204.77 171.38 216.5 35.668 11.733 173.74 8.0951 287.7-65.493 110.84-71.569 216.23-222.55 291.34-420.59 74.908-197.51-48.632-245.07-278.17-320.58z" fill="#fff" stroke-width="1.347"/>
    <path d="m279.73 91.737c349.09 104.54 302.78 214.32 256.62 339.98-46.154 125.67-136.28 337.92-297.3 416.32-161.03 78.394-227.1 34.285-263.46 49.322l304.15-805.62z" stroke-width="0"/>
   </g>
   <g stroke-width="1.347">
    <path d="m212.06 427.87c9.641-12.405 34.067-14.73 80.756 0.69183 48.516 16.025 139.22 82.361 129.58 94.766-6.4452 8.2929-125.42-21.679-168.15-45.146-42.764-23.486-51.055-38.907-42.192-50.311z" fill="#fcfcfc" stroke="#fcfbf9"/>
    <path d="m108.76 390.03c0.61774-15.59-16.704-32.653-62.704-49.952-47.801-17.977-160.78-23.546-161.4-7.9558-0.41315 10.422 110.75 61.693 158.92 70.316 48.208 8.6293 64.608 1.9241 65.176-12.408z" stroke="#000"/>
    <path d="m219.73 379.27s92.671-18.531 125.28-7.2528c31.18 10.785 134.93 63.535 134.93 63.535s-98.367-67.75-129.55-78.535c-31.231-10.803-130.66 22.253-130.66 22.253z" fill="#fff" stroke="#fcfcfc"/>
    <path d="m136.23 354.96s-60.381-71.472-92.986-82.75c-31.18-10.785-145.69-33.534-145.69-33.534s119.89 7.7476 151.07 18.533c31.231 10.803 87.604 97.751 87.604 97.751l-1e-4 2e-4z" stroke="#000"/>
    <path d="m179.49 370.92c-0.68231 61.962-20.502 106.56-31.43 148.24-10.928 41.678-14.065 55.349-6.5322 81.17 7.533 25.82 10.084 94.457-8.0665 79.642s-38.948-12.532-57.506-19.892c42.74-119.68 77.067-215.39 103.54-289.16l1e-4 1e-4z" fill="#fff" stroke="#fcfcfc"/>
    <path d="m171.82 368.17c-39.02 48.701-51.765 95.934-69.853 135.14-18.088 39.201-24.371 51.784-46.722 67.268-22.351 15.483-68.151 67.395-44.552 67.021 23.6-0.3736 38.349 14.205 57.506 19.891 43.089-119.56 77.152-215.54 103.62-289.32z" stroke="#000"/>
    <path d="m161.23 843.29s-38.072-117.15-101.1-138.63l-19.851 55.331c57.86 20.014 120.95 83.302 120.95 83.302z" fill="#fff" stroke="#fcfcfc"/>
    <path d="m-114.8 747.81s104.44-67.849 167.26-45.805l-19.851 55.331c-57.86-20.014-147.42-9.526-147.42-9.526z" stroke="#000"/>
   </g>
  </g>
  <g stroke-linejoin="round">
   <g stroke="#000">
    <path d="m519.5-132.18c-251.84 70.521-362.1 65.987-296.42 282.29 64.135 211.22 140.44 387.16 254.71 472.21 114.56 85.267 249.13 98.736 287.22 88.068 38.095-10.667 154.22-94.335 203.1-225.37 47.54-127.44 23.254-314.62-42.6-531.5-65.677-216.3-160.85-154.35-406.01-85.699z" fill="#fff" stroke-width="1.347"/>
    <path d="m509.16-126.67c401.34-140.79 368.09-72.049 442.81 163.15 74.726 235.2 64.864 446.66 10.875 512.05-53.99 65.377-149.44 137-180.77 159l-273.69-826.52 0.7847-7.6836z" stroke-width="0"/>
   </g>
   <g stroke-width="1.347">
    <g stroke="#000">
     <path d="m508.31 498.9s152.95 87.281 220.09 67.31l-23.847-80.818c-61.819 18.083-196.24 13.508-196.24 13.508z"/>
     <path d="m884.55 384.74s-81.233 155.78-148.55 175.14l-23.846-80.818c61.819-18.083 172.4-94.325 172.4-94.325v1.22e-4z" fill="#fff"/>
     <path d="m673.62 156.77c-4.7482-16.092 8.4792-38.101 51.003-67.362 44.187-30.407 158.37-63.806 163.12-47.714 3.1742 10.758-97.09 91.332-144.13 112.08-47.072 20.767-65.631 17.787-69.996 2.9936v-1.22e-4z" fill="#fcfcfc"/>
     <path d="m560.42 189.88c-4.7484-16.092-27.83-27.48-79.492-29.191-53.684-1.778-167.87 31.622-163.12 47.714 3.1742 10.758 131.28 24.532 182.11 16.655 50.874-7.8835 64.864-20.384 60.499-35.178z"/>
    </g>
    <path d="m635.08 76.315s67.216-73.214 102.05-83.404c33.314-9.7446 154.76-27.418 154.76-27.418s-126.29 1.241-159.61 10.986c-33.368 9.7605-97.203 99.836-97.203 99.836z" fill="#fff" stroke="#fff"/>
    <g stroke="#000">
     <path d="m549.83 101.25s-96.308-25.381-131.14-15.191c-33.314 9.7447-145.06 60.283-145.06 60.283s106.9-66.971 140.21-76.716c33.368-9.7606 135.99 31.624 135.99 31.624z"/>
     <path d="m597.44 92.491c38.365 54.622 49.533 105.83 66.429 149.01 16.896 43.181 22.82 57.07 45.46 75.024 22.64 17.953 67.952 76.426 43.194 74.631-24.758-1.7957-41.023 12.995-61.441 17.972-38.851-130.98-69.795-235.82-93.642-316.64z" fill="#fffcfc"/>
     <path d="m589.19 94.808c-2.5952 66.604 16.247 115.76 25.494 161.18 9.2465 45.419 11.81 60.291 2.5199 87.584-9.2893 27.293-15.636 100.88 4.2125 86.033 19.848-14.844 41.563-11.162 61.44-17.972-38.477-131.09-69.82-236.01-93.666-316.83l-2e-4 1e-4z"/>
    </g>
   </g>
  </g>
 </g>
</svg>
