<?xml version="1.0" encoding="UTF-8"?>
<svg viewBox="0 0 437.5 437.5" xmlns="http://www.w3.org/2000/svg">
 <path d="m241.94 328.44c-19.688-13.812-54-19.875-91.375-14.062-55.312 8.5625-96.312 39.75-91.688 69.688s53.188 47.312 108.5 38.75c48.312-7.5625 88.562-32.312 94.125-58.438l0.9375-189c28.062-12.812 97.5 27.75 107.56 56.75 5.625 21.062 22.5 21.062-16.875 57.688 0 18.25 15.438 25.312 18.25 19.688 38-61.938 19.688-92.875 7.0625-111.12-5.8125-8.375-47.631-41.92-74.843-74.018s-39.816-62.747-60.352-82.211l-1.3055 286.29z" fill-rule="evenodd" stroke="#000"/>
</svg>
