<?xml version="1.0" encoding="UTF-8"?>
<svg width="400" height="900" viewBox="0 0 1200 1200" xmlns="http://www.w3.org/2000/svg">
 <path d="m592.11 1276c-130.36-7.5767-263.45-89.34-343.05-183.18-92.286-108.81-130.33-256.74-120.59-378.22 28.631-356.95 416.81-567.93 560.5-723.84 96.182-104.37 116.35-155.24 137.83-208.92 41.592-103.9 48.292-225.63-34.166-234.72-78.727-8.6774-143.5 115.13-172.42 199.74-26.014 76.105-43.305 152.46-27.653 267.16 7.0332 51.53 200.63 1489.9 203.9 1512.2 32.604 222.82-94.821 315.02-224.9 331.42-280.9 35.413-371.03-250.04-245.13-358.45 96.922-83.472 237.93-11.81 230.31 125.42-6.7455 121.55-125.93 125.13-156.38 122.35 46.748 83.842 399.18 127.64 345.06-251.15-7.6041-53.229-186.5-1404.9-190.88-1435.2-32.819-226.44-37.82-405.68 80.161-614.85 43.556-77.215 112.39-127.06 146.18-120.54 7.426 1.434 14.825 4.1606 20.698 10.221 90.5 93.25 118.26 300.04 108.35 418.82-10.153 121.63-15.811 247.54-136.75 394.38-46.803 56.823-189.62 182-271.51 253.92-115.06 101.05-198.51 189.3-243.67 295.77-50.744 119.66-59.335 270.28 55.279 403.93 65.93 75.511 175.32 129.09 267.38 130.23 255.98 3.1786 330.74-123 333.12-265.9 3.9322-235.3-280.13-324.26-396.92-162.47-67.716 93.812-37.952 192.55 7.5265 239.53 15.61 16.122 33.047 28.402 49.543 35.248 5.9783 2.4799 20.04 9.0199 16.049 18.592-3.3202 7.9649-9.7689 8.4125-15.642 7.7092-73.648-8.8327-155.2-79.229-175.25-200.31-29.22-176.48 126.52-385.84 348.83-351.6 145.54 22.415 280.67 147.65 268.82 380.85-10.162 199.86-175.85 356.31-424.63 341.85z"/>
</svg>
