<?xml version="1.0" encoding="UTF-8"?>
<svg viewBox="0 0 212.6 212.6" xmlns="http://www.w3.org/2000/svg">
 <path d="m212.6 106.3a106.3 106.3 0 1 1 -212.6 0 106.3 106.3 0 1 1 212.6 0z" fill="#fff"/>
 <g transform="matrix(.18633 0 0 .18633 -1921.1 -1208.7)" fill-rule="evenodd">
  <path class="fil1" d="m10881 6487.6c314.22 0 570.5 256.02 570.5 569.92 0 313.91-256.28 569.93-570.5 569.93s-570.5-256.02-570.5-569.93 256.28-569.92 570.5-569.92zm182.47 101.72c120.01 118.78 194.37 282.02 194.37 461.77 0 179.71-74.358 342.96-194.37 461.69 71.953-138.32 112.76-295.39 112.76-461.69 0-166.38-40.81-323.5-112.76-461.77zm-78.319 180.97c75.54 74.669 122.34 177.4 122.34 290.58 0 113.12-46.8 215.83-122.34 290.52 45.296-86.98 70.98-185.84 70.98-290.52 0-104.74-25.685-203.62-70.98-290.58zm-63.562 112.41c47.65 47.221 77.118 112.09 77.118 183.44 0 71.472-29.468 136.3-77.153 183.45 28.567-54.905 44.772-117.36 44.772-183.45 0-66.055-16.204-128.43-44.736-183.44zm-371.62 53.689h124.31c6.7803 0 12.934 2.4453 17.757 6.5435l185-207.97v650.18l-192.87-218.75c-3.0635 1.1733-6.3906 1.8306-9.8867 1.8306h-124.31c-15.138 0-27.512-12.338-27.512-27.456v-176.92c0-15.134 12.374-27.456 27.512-27.456v-9.77e-4z" fill="#191919"/>
 </g>
</svg>
