<?xml version="1.0" encoding="UTF-8"?>
<svg enable-background="new 0 0 459.999 324.102" viewBox="0 0 459.999 324.102" xmlns="http://www.w3.org/2000/svg">
 <path d="m230 10c-121.44 0-220 43.457-220 97 0 47.366 77.131 86.835 179 95.312 9.029 98.268 77.031 108.16 77.031 108.16s-28.554-34.51-33.625-106.47c120.33-0.569 217.59-43.809 217.59-97 0-53.543-98.56-97-220-97z" fill="#fff"/>
 <path d="m264.59 320.36c-1.114-0.179-19.869-3.02-40.002-19.366-19.063-15.392-38.65-43.123-44.642-89.475-35.781-3.6-68.419-10.958-95.861-21.239-29.513-11.112-53.123-25.449-68.098-43.165-9.94-11.772-16.008-25.487-15.989-40.119-0.013-16.57 7.719-31.844 20.083-44.669 12.411-12.901 29.583-23.889 50.342-33.06 41.52-18.273 97.647-29.245 159.58-29.27v20c-44.642-6e-3 -86.09 6.011-120.12 16.156-34.041 10.088-60.588 24.521-75.366 40.024-9.912 10.382-14.501 20.619-14.512 30.819 0.017 9.052 3.591 18.035 11.297 27.248 7.676 9.158 19.474 18.168 34.657 26.143 30.359 16.01 74.02 27.832 123.87 31.959l8.361 0.695 0.769 8.354c3.769 40.404 17.549 63.761 31.489 77.94 4.038 4.09 8.132 7.415 12.057 10.113-8.349-18.586-17.402-46.727-20.074-84.747l-0.752-10.652 10.68-0.052c44.231-0.203 85.24-6.32 118.88-16.49 33.653-10.111 59.861-24.487 74.44-39.893 9.776-10.318 14.304-20.482 14.316-30.619-0.013-10.2-4.601-20.438-14.512-30.819-9.863-10.308-24.925-20.222-43.982-28.608-38.118-16.84-91.992-27.598-151.5-27.571v-20c46.438 6e-3 89.636 6.212 125.83 16.989 36.186 10.838 65.45 26.032 84.085 45.341 12.364 12.825 20.095 28.099 20.082 44.669 0.013 16.46-7.619 31.648-19.837 44.416-12.267 12.841-29.238 23.792-49.766 32.955-38.616 17.168-90.036 27.975-147.08 29.461 6.521 60.195 29.744 89.394 30.426 90.275l-1e-3 1e-3 16.546 19.995-25.7-3.739z" fill="#010101"/>
</svg>
